<svg xmlns="http://www.w3.org/2000/svg" viewBox="300 420 590 470">
  <g fill-rule="evenodd">
    <path fill="#f3e7e8" d="M827 430 826 639 646 640 645 667 826 668 827 875 879 876 881 875 882 759 882 436 881 430ZM580 430 531 431 531 751 529 764 523 784 515 799 507 810 489 827 471 837 460 841 444 844 426 844 408 841 390 834 377 825 362 810 355 800 347 783 342 766 341 753 311 754 312 769 316 787 321 801 332 822 339 832 356 850 374 863 384 868 412 877 427 879 443 879 464 876 495 866 510 858 526 847 546 828 558 812 569 791 577 767 580 748Z"/>
    <path fill="#b98282" d="M598 428H639V874H598Z"/>
  </g>
</svg>
